<svg data-v-d3f97b9e="" xmlns="http://www.w3.org/2000/svg" viewBox="0 0 293 90"><!----><!----><!----><g data-v-d3f97b9e="" id="495135de-3271-4eb2-a084-2f86fce7edc0" fill="white" transform="matrix(5.029338077243787,0,0,5.029338077243787,103.58799526801901,-23.72590175866989)"><path d="M6.16 12.75L6.16 12.75Q6.78 12.96 7.11 13.48L7.11 13.48L7.11 13.48Q7.45 13.99 7.45 14.71L7.45 14.71L7.45 14.71Q7.45 15.90 6.84 16.54L6.84 16.54L6.84 16.54Q6.23 17.18 5.07 17.18L5.07 17.18L1.26 17.18L1.26 8.43L4.62 8.43L4.62 8.43Q5.85 8.43 6.43 8.95L6.43 8.95L6.43 8.95Q7.01 9.48 7.01 10.60L7.01 10.60L7.01 10.60Q7.01 11.38 6.81 11.87L6.81 11.87L6.81 11.87Q6.61 12.36 6.16 12.67L6.16 12.67L6.16 12.75ZM5.61 10.88L5.61 10.88Q5.61 10.07 5.38 9.76L5.38 9.76L5.38 9.76Q5.14 9.45 4.51 9.45L4.51 9.45L2.66 9.45L2.66 12.28L4.49 12.28L4.49 12.28Q5.12 12.28 5.37 11.97L5.37 11.97L5.37 11.97Q5.61 11.66 5.61 10.88L5.61 10.88ZM4.87 16.16L4.87 16.16Q5.50 16.16 5.78 15.80L5.78 15.80L5.78 15.80Q6.05 15.44 6.05 14.63L6.05 14.63L6.05 14.63Q6.05 13.89 5.78 13.57L5.78 13.57L5.78 13.57Q5.52 13.26 4.89 13.26L4.89 13.26L2.66 13.26L2.66 16.16L4.87 16.16ZM14.95 10.18L14.95 17.18L14.31 17.18L13.93 16.48L13.93 16.48Q13.37 16.91 12.71 17.12L12.71 17.12L12.71 17.12Q12.04 17.32 11.19 17.32L11.19 17.32L11.19 17.32Q10.23 17.32 9.79 16.96L9.79 16.96L9.79 16.96Q9.34 16.60 9.34 15.85L9.34 15.85L9.34 10.18L10.74 10.18L10.74 16.24L12.36 16.24L12.36 16.24Q13.05 16.24 13.30 16.07L13.30 16.07L13.30 16.07Q13.55 15.90 13.55 15.43L13.55 15.43L13.55 10.18L14.95 10.18ZM21.52 7.87L22.92 7.70L22.92 17.18L22.27 17.18L21.97 16.62L21.97 16.62Q21.69 17.05 21.16 17.22L21.16 17.22L21.16 17.22Q20.64 17.39 19.71 17.39L19.71 17.39L19.71 17.39Q18.59 17.39 18.04 17.09L18.04 17.09L18.04 17.09Q17.49 16.80 17.27 16.03L17.27 16.03L17.27 16.03Q17.05 15.26 17.05 13.68L17.05 13.68L17.05 13.68Q17.05 12.19 17.26 11.42L17.26 11.42L17.26 11.42Q17.47 10.65 17.99 10.35L17.99 10.35L17.99 10.35Q18.51 10.04 19.52 10.04L19.52 10.04L19.52 10.04Q20.23 10.04 20.71 10.12L20.71 10.12L20.71 10.12Q21.20 10.19 21.52 10.37L21.52 10.37L21.52 7.87ZM21.52 15.89L21.52 11.19L19.17 11.19L19.17 11.19Q18.79 11.19 18.66 11.26L18.66 11.26L18.66 11.26Q18.52 11.33 18.52 11.54L18.52 11.54L18.52 16.24L20.87 16.24L20.87 16.24Q21.25 16.24 21.38 16.17L21.38 16.17L21.38 16.17Q21.52 16.10 21.52 15.89L21.52 15.89ZM27.78 16.14L27.78 16.14Q28.94 16.27 29.48 16.43L29.48 16.43L29.48 16.43Q30.03 16.59 30.23 16.87L30.23 16.87L30.23 16.87Q30.42 17.15 30.42 17.72L30.42 17.72L30.42 17.72Q30.42 18.38 30.16 18.77L30.16 18.77L30.16 18.77Q29.89 19.15 29.28 19.32L29.28 19.32L29.28 19.32Q28.67 19.49 27.64 19.49L27.64 19.49L27.64 19.49Q26.88 19.49 26.16 19.38L26.16 19.38L26.16 19.38Q25.44 19.26 24.92 19.07L24.92 19.07L25.10 18.00L25.10 18.00Q25.83 18.19 26.34 18.26L26.34 18.26L26.34 18.26Q26.85 18.34 27.38 18.34L27.38 18.34L27.38 18.34Q28.46 18.34 29.18 18.19L29.18 18.19L29.18 17.15L29.18 17.15Q27.75 17.07 27.15 16.93L27.15 16.93L27.15 16.93Q26.54 16.79 26.54 16.55L26.54 16.55L26.92 15.11L26.92 15.11Q26.12 15.04 25.67 14.77L25.67 14.77L25.67 14.77Q25.21 14.50 25.01 13.97L25.01 13.97L25.01 13.97Q24.81 13.44 24.81 12.56L24.81 12.56L24.81 12.56Q24.81 11.56 25.07 11.01L25.07 11.01L25.07 11.01Q25.33 10.46 25.91 10.21L25.91 10.21L25.91 10.21Q26.50 9.97 27.57 9.97L27.57 9.97L27.57 9.97Q28.64 9.97 29.22 10.21L29.22 10.21L30.21 9.45L30.91 10.14L30.10 11.07L30.10 11.07Q30.34 11.61 30.34 12.56L30.34 12.56L30.34 12.56Q30.34 13.51 30.11 14.06L30.11 14.06L30.11 14.06Q29.88 14.60 29.34 14.85L29.34 14.85L29.34 14.85Q28.80 15.11 27.85 15.13L27.85 15.13L27.78 16.14ZM26.19 11.76L26.19 14.21L27.93 14.21L27.93 14.21Q28.50 14.21 28.73 14.02L28.73 14.02L28.73 14.02Q28.95 13.83 28.95 13.34L28.95 13.34L28.95 10.89L27.22 10.89L27.22 10.89Q26.64 10.89 26.42 11.08L26.42 11.08L26.42 11.08Q26.19 11.27 26.19 11.76L26.19 11.76ZM36.09 10.18L37.48 10.18L35.48 16.76L35.48 16.76Q35.14 17.86 34.76 18.48L34.76 18.48L34.76 18.48Q34.38 19.10 33.87 19.36L33.87 19.36L33.87 19.36Q33.35 19.63 32.56 19.63L32.56 19.63L32.56 19.63Q31.88 19.63 31.35 19.47L31.35 19.47L31.40 18.73L32.37 18.61L32.37 18.61Q32.91 18.54 33.20 18.40L33.20 18.40L33.20 18.40Q33.49 18.27 33.67 17.99L33.67 17.99L33.67 17.99Q33.85 17.71 34.01 17.18L34.01 17.18L34.13 16.76L33.35 16.76L31.35 10.18L32.73 10.18L34.34 15.57L34.48 15.57L36.09 10.18Z"></path></g><!----><g data-v-d3f97b9e="" id="afc2e4b6-c200-47d8-a8b4-a6ac8336920e" transform="matrix(1.4999995231629935,0,0,1.4999995231629935,0.025016592810239047,0)" stroke="none" fill="white"><g fill-rule="evenodd"><path d="M5 6a1 1 0 1 0 0-2 1 1 0 0 0 0 2M8 55a1 1 0 1 0 0 2 1 1 0 0 0 0-2M3 48a1 1 0 1 0 0 2 1 1 0 0 0 0-2M14 3a1 1 0 1 0 0-2 1 1 0 0 0 0 2M54 6a1 1 0 1 0 0-2 1 1 0 0 0 0 2M42.618 30a1 1 0 0 1 1-1h16.357a29.828 29.828 0 0 0-1.695-9H32.263a1 1 0 1 1 0-2h25.224a29.825 29.825 0 0 0-2.129-4H43a1 1 0 0 1 0-2h10.984C48.505 4.718 39.794 0 30 0 17.723 0 7.151 7.416 2.513 18h23.148a1 1 0 0 1 0 2H1.72a29.828 29.828 0 0 0-1.695 9h9.712a1 1 0 1 1 0 2H.025a29.8 29.8 0 0 0 2.073 10h21.845a1 1 0 0 1 0 2H2.966a30.162 30.162 0 0 0 6.666 9h24.174a1 1 0 0 1 0 2H12.021A29.84 29.84 0 0 0 30 60a29.84 29.84 0 0 0 17.979-6h-7.776a1 1 0 0 1 0-2h10.165a30.162 30.162 0 0 0 6.666-9h-26.86a1 1 0 0 1 0-2h27.728a29.8 29.8 0 0 0 2.073-10H43.618a1 1 0 0 1-1-1zM34.567 6H42.9a1 1 0 1 1 0 2h-8.333a1 1 0 0 1 0-2zM16.206 7a1 1 0 0 1 1-1h10.417a1 1 0 0 1 0 2H17.206a1 1 0 0 1-1-1zM24 14a1 1 0 0 1 0-2h10a1 1 0 0 1 0 2H24zm1 9h10a1 1 0 0 1 0 2H25a1 1 0 0 1 0-2zM6 25a1 1 0 0 1 0-2h10a1 1 0 0 1 0 2H6zm9.349 5a1 1 0 0 1 1-1h20.277a1 1 0 0 1 0 2H16.349a1 1 0 0 1-1-1zm21.928 16a1 1 0 0 1 0 2H17a1 1 0 0 1 0-2h20.277zM44 36a1 1 0 0 1-1 1H22.723a1 1 0 0 1 0-2H43a1 1 0 0 1 1 1z"></path></g></g><!----></svg>