<?xml version="1.0" standalone="no"?>
<!DOCTYPE svg PUBLIC "-//W3C//DTD SVG 20010904//EN"
 "http://www.w3.org/TR/2001/REC-SVG-20010904/DTD/svg10.dtd">
<svg version="1.0" xmlns="http://www.w3.org/2000/svg"
 width="1000.000000pt" height="1000.000000pt" viewBox="0 0 1000.000000 1000.000000"
 preserveAspectRatio="xMidYMid meet">
<metadata>
Created by potrace 1.11, written by Peter Selinger 2001-2013
</metadata>
<g transform="translate(0.000000,1000.000000) scale(0.100000,-0.100000)"
fill="#000000" stroke="none">
<path d="M4785 8660 c-754 -44 -1476 -322 -2070 -795 -423 -338 -804 -817
-1025 -1291 l-49 -104 1420 0 c1542 0 1462 3 1507 -55 29 -37 30 -103 1 -139
-47 -60 56 -56 -1553 -56 l-1475 0 -31 -97 c-94 -293 -170 -711 -170 -939 l0
-64 619 -2 619 -3 26 -24 c52 -49 52 -133 0 -182 l-26 -24 -620 -3 -621 -2 6
-118 c16 -314 99 -712 209 -1007 l34 -90 1354 -5 c1055 -4 1360 -8 1377 -17
40 -24 63 -63 63 -109 0 -36 -6 -51 -34 -82 l-34 -37 -1306 -3 c-718 -1 -1306
-6 -1306 -10 0 -4 38 -76 84 -159 175 -315 371 -576 622 -830 l101 -103 1502
0 1501 0 35 -32 c45 -41 55 -90 30 -142 -36 -76 78 -71 -1424 -67 -1009 2
-1342 0 -1337 -8 12 -19 314 -215 431 -279 426 -232 887 -375 1388 -428 194
-20 650 -15 832 10 280 39 562 110 825 207 256 96 623 291 830 442 l64 47
-471 0 c-309 0 -481 4 -500 11 -100 37 -121 147 -41 214 l30 25 642 0 643 0
139 143 c258 265 482 574 633 874 l41 83 -1666 2 -1666 3 -34 37 c-28 31 -34
46 -34 82 0 51 27 92 76 112 28 12 311 14 1733 14 l1699 0 30 79 c113 296 193
673 218 1032 l7 96 -1019 8 c-1125 8 -1057 3 -1089 71 -19 40 -19 68 0 108 32
67 -36 63 1089 71 l1019 7 -7 97 c-21 302 -73 583 -163 874 l-36 117 -1599 0
c-1739 0 -1644 -3 -1683 56 -23 36 -24 101 -1 136 40 62 -66 58 1630 58 850 0
1546 4 1546 8 0 16 -148 306 -198 387 l-48 80 -775 5 c-827 5 -797 3 -838 56
-26 33 -28 104 -5 140 37 56 16 54 759 54 l686 0 -80 99 c-500 617 -1175 1053
-1939 1251 -348 91 -765 131 -1127 110z m-15 -745 c36 -19 60 -62 60 -107 -1
-42 -19 -74 -56 -99 -28 -18 -54 -19 -700 -19 l-671 0 -34 23 c-66 44 -70 139
-8 191 l31 26 674 0 c584 0 679 -2 704 -15z m1870 0 c71 -37 79 -135 16 -192
l-36 -33 -545 0 c-588 0 -583 0 -619 52 -9 13 -16 43 -16 71 0 42 5 54 34 83
l34 34 551 0 c474 0 556 -2 581 -15z m-1090 -731 c59 -35 77 -111 40 -171 -37
-61 -6 -58 -715 -55 -726 4 -680 -1 -718 75 -17 33 -17 42 -5 79 9 28 24 50
47 65 l34 23 644 0 c579 0 648 -2 673 -16z m-2220 -1337 c82 -29 105 -137 41
-201 l-31 -31 -638 -3 c-434 -2 -649 0 -674 8 -38 11 -70 46 -81 88 -13 55 30
124 89 142 47 14 1252 11 1294 -3z m2324 -1 c96 -40 104 -176 12 -220 -30 -14
-102 -16 -666 -16 -564 0 -636 2 -666 16 -91 43 -84 179 10 220 46 20 1262 20
1310 0z m222 -742 c51 -34 68 -107 39 -164 -33 -64 51 -60 -1345 -60 -1396 0
-1312 -4 -1345 60 -19 37 -19 83 0 120 33 63 -53 59 1348 60 1170 0 1280 -1
1303 -16z m774 -730 c87 -52 78 -181 -16 -220 -50 -21 -2518 -21 -2568 0 -77
32 -102 124 -49 186 14 18 36 36 47 40 12 5 592 9 1289 9 1157 1 1271 0 1297
-15z m-716 -1338 c69 -29 96 -107 61 -176 -33 -64 51 -60 -1340 -60 -1390 0
-1311 -3 -1348 59 -37 64 -5 154 63 178 55 19 2518 18 2564 -1z"/>
<path d="M2979 8525 c-28 -15 -59 -70 -59 -105 0 -57 65 -120 125 -120 44 0
94 35 112 77 31 76 -28 163 -110 163 -23 -1 -54 -7 -68 -15z"/>
<path d="M1890 8163 c-92 -47 -87 -180 7 -220 48 -20 95 -10 132 28 98 98 -16
255 -139 192z"/>
<path d="M7893 8169 c-65 -19 -98 -99 -68 -163 21 -44 59 -66 116 -66 33 0 47
6 75 34 29 29 34 41 34 79 0 53 -27 93 -76 113 -37 16 -37 16 -81 3z"/>
<path d="M1639 2783 c-55 -34 -74 -105 -44 -163 22 -42 53 -60 105 -60 52 0
83 18 105 60 56 108 -64 226 -166 163z"/>
<path d="M2238 1917 c-59 -50 -65 -118 -15 -172 40 -45 89 -55 141 -30 44 21
66 59 66 116 0 33 -6 47 -34 75 -29 29 -41 34 -82 34 -36 0 -56 -6 -76 -23z"/>
</g>
</svg>
