<svg data-v-d3f97b9e="" xmlns="http://www.w3.org/2000/svg" viewBox="0 0 277 90"><!----><!----><!----><g data-v-d3f97b9e="" id="3a46c40d-ee95-460a-8492-20ad0ea06509" fill="black" transform="matrix(4.622495971313948,0,0,4.622495971313948,107.4221053542391,-0.2542372001739821)"><path d="M1.27 12.84L2.10 4.03L5.07 4.03L5.07 4.03Q6.31 4.03 6.96 4.72L6.96 4.72L6.96 4.72Q7.53 5.33 7.45 6.22L7.45 6.22L7.45 6.22Q7.28 8.02 5.74 8.41L5.74 8.41L5.74 8.41Q6.47 8.55 6.86 9.11L6.86 9.11L6.86 9.11Q7.49 10.04 6.97 11.31L6.97 11.31L6.97 11.31Q6.61 12.22 5.56 12.63L5.56 12.63L5.56 12.63Q5.01 12.84 4.24 12.84L4.24 12.84L1.27 12.84ZM2.35 11.87L4.31 11.87L4.31 11.87Q5.98 11.87 6.13 10.39L6.13 10.39L6.13 10.39Q6.20 9.72 5.81 9.32L5.81 9.32L5.81 9.32Q5.42 8.92 4.59 8.92L4.59 8.92L2.63 8.92L2.35 11.87ZM3.00 4.98L2.72 7.97L4.66 7.97L4.66 7.97Q5.39 7.97 5.86 7.57L5.86 7.57L5.86 7.57Q6.33 7.17 6.40 6.47L6.40 6.47L6.40 6.47Q6.47 5.77 6.08 5.38L6.08 5.38L6.08 5.38Q5.70 4.98 4.94 4.98L4.94 4.98L3.00 4.98ZM13.20 12.84L13.33 11.51L13.33 11.51Q12.59 12.96 11.19 12.96L11.19 12.96L11.19 12.96Q10.16 12.96 9.60 12.33L9.60 12.33L9.60 12.33Q9.04 11.70 9.16 10.39L9.16 10.39L9.56 6.13L10.56 6.13L10.16 10.30L10.16 10.30Q10.00 12.00 11.42 12.00L11.42 12.00L11.42 12.00Q12.26 12.00 12.85 11.27L12.85 11.27L12.85 11.27Q13.41 10.56 13.52 9.39L13.52 9.39L13.83 6.13L14.83 6.13L14.20 12.84L13.20 12.84ZM20.86 12.84L20.83 11.72L20.83 11.72Q20.12 12.99 18.89 12.99L18.89 12.99L18.89 12.99Q17.84 12.99 17.18 12.17L17.18 12.17L17.18 12.17Q16.51 11.31 16.51 9.95L16.51 9.95L16.51 9.95Q16.51 8.47 17.26 7.32L17.26 7.32L17.26 7.32Q18.13 5.98 19.42 5.98L19.42 5.98L19.42 5.98Q20.72 5.98 21.21 7.13L21.21 7.13L21.57 3.30L22.57 3.30L21.67 12.84L20.86 12.84ZM19.46 6.96L19.46 6.96L19.46 6.96Q19.04 6.96 18.65 7.25L18.65 7.25L18.65 7.25Q18.27 7.53 18.02 7.97L18.02 7.97L18.02 7.97Q17.54 8.81 17.54 9.84L17.54 9.84L17.54 9.84Q17.54 10.88 17.98 11.45L17.98 11.45L17.98 11.45Q18.42 12.01 19.10 12.01L19.10 12.01L19.10 12.01Q19.74 12.01 20.26 11.49L20.26 11.49L20.26 11.49Q20.83 10.92 20.94 9.95L20.94 9.95L21.04 8.97L21.04 8.97Q21.13 7.99 20.66 7.45L20.66 7.45L20.66 7.45Q20.26 6.96 19.46 6.96ZM28.66 6.48L28.66 6.48L28.66 6.48Q28.81 5.74 29.30 5.29L29.30 5.29L29.30 5.29Q29.79 4.84 30.53 4.84L30.53 4.84L30.32 5.94L30.32 5.94Q29.22 5.94 29.08 6.96L29.08 6.96L29.08 6.96Q29.47 7.59 29.40 8.27L29.40 8.27L29.40 8.27Q29.33 8.96 29.10 9.42L29.10 9.42L29.10 9.42Q28.87 9.87 28.50 10.21L28.50 10.21L28.50 10.21Q27.75 10.88 26.70 10.88L26.70 10.88L26.70 10.88Q25.98 10.88 25.47 10.56L25.47 10.56L25.47 10.56Q25.20 10.61 24.98 10.82L24.98 10.82L24.98 10.82Q24.77 11.02 24.72 11.35L24.72 11.35L24.72 11.35Q24.65 12.11 25.77 12.11L25.77 12.11L28.11 12.11L28.11 12.11Q28.95 12.11 29.41 12.51L29.41 12.51L29.41 12.51Q29.88 12.91 29.81 13.62L29.81 13.62L29.81 13.62Q29.72 14.67 28.70 15.46L28.70 15.46L28.70 15.46Q27.64 16.28 26.04 16.28L26.04 16.28L26.04 16.28Q24.68 16.28 23.88 15.67L23.88 15.67L23.88 15.67Q23.10 15.05 23.18 14.14L23.18 14.14L23.18 14.14Q23.23 13.54 23.59 13.16L23.59 13.16L23.59 13.16Q23.95 12.78 24.50 12.63L24.50 12.63L24.50 12.63Q24.15 12.43 23.98 12.12L23.98 12.12L23.98 12.12Q23.81 11.80 23.86 11.38L23.86 11.38L23.86 11.38Q23.90 10.95 24.23 10.62L24.23 10.62L24.23 10.62Q24.56 10.29 25.00 10.18L25.00 10.18L25.00 10.18Q24.39 9.48 24.50 8.41L24.50 8.41L24.50 8.41Q24.61 7.32 25.37 6.65L25.37 6.65L25.37 6.65Q26.12 5.98 27.10 5.98L27.10 5.98L27.10 5.98Q28.07 5.98 28.66 6.48ZM24.16 14.10L24.16 14.10L24.16 14.10Q24.12 14.63 24.61 15.02L24.61 15.02L24.61 15.02Q25.10 15.40 26.11 15.40L26.11 15.40L26.11 15.40Q27.22 15.40 28 14.88L28 14.88L28 14.88Q28.73 14.39 28.81 13.69L28.81 13.69L28.81 13.69Q28.84 13.37 28.65 13.14L28.65 13.14L28.65 13.14Q28.46 12.91 28.04 12.91L28.04 12.91L25.59 12.91L25.59 12.91Q24.95 12.94 24.59 13.25L24.59 13.25L24.59 13.25Q24.23 13.57 24.16 14.10ZM28.42 8.41L28.42 8.41L28.42 8.41Q28.49 7.69 28.14 7.23L28.14 7.23L28.14 7.23Q27.79 6.78 27.10 6.78L27.10 6.78L27.10 6.78Q26.40 6.78 25.98 7.23L25.98 7.23L25.98 7.23Q25.55 7.69 25.48 8.41L25.48 8.41L25.48 8.41Q25.41 9.14 25.76 9.61L25.76 9.61L25.76 9.61Q26.11 10.08 26.79 10.08L26.79 10.08L26.79 10.08Q27.47 10.08 27.91 9.60L27.91 9.60L27.91 9.60Q28.35 9.13 28.42 8.41ZM30.06 15.79L30.16 14.78L30.16 14.78Q30.72 15.32 31.39 15.32L31.39 15.32L31.39 15.32Q32.30 15.32 32.90 13.52L32.90 13.52L33.15 12.84L31.32 6.15L32.42 6.15L33.74 11.47L35.67 6.15L36.68 6.15L33.67 14.17L33.67 14.17Q33.28 15.19 32.75 15.74L32.75 15.74L32.75 15.74Q32.23 16.28 31.50 16.28L31.50 16.28L31.50 16.28Q30.77 16.28 30.06 15.79L30.06 15.79Z"></path></g><!----><g data-v-d3f97b9e="" id="a6de4618-48e3-4ea9-a324-424f9533597b" transform="matrix(1.4634146341463414,0,0,1.4634146341463414,-26.045726124833266,-28.036585365853654)" stroke="none" fill="black"><path d="M78.8 47l-9.4-16.3c-4.1-7-11.3-11.2-19.4-11.2-8.1 0-15.4 4.2-19.4 11.2L21.2 47c-4.1 7-4.1 15.6 0 22.6 4.1 7 11.3 11.4 19.4 11.4h18.8c8.1 0 15.4-4.4 19.4-11.4 4.1-7 4.1-15.6 0-22.6zm-10.4 2c3.3 5.8 3.3 12.6 0 18.4-1.9 3.3-4.6 5.8-7.8 7.3 1.7-1.5 3.1-3.3 4.3-5.3 4.1-7 4.1-15.4 0-22.4l-3-5.2c.9.1 1.7.2 2.6.4l3.9 6.8zm-7.8-11.3c-8.1 0-15.4 4.2-19.4 11.2l-2.5 4.4c-.6-.5-1.1-1.1-1.6-1.7l4-6.9c3.3-5.8 9.3-9.2 15.9-9.2 3.9 0 7.5 1.2 10.6 3.3-2.3-.7-4.6-1.1-7-1.1zm-6.4 11.1c1.7 2.9 2.5 6.2 2.5 9.2h-5.6c-3.4 0-6.5-.8-9.3-2.4l2.8-4.7c1.7-2.9 4-5.3 6.8-6.8l2.8 4.7zm-25-4.3c.5 2.3 1.3 4.4 2.5 6.4C35.8 57.9 43 62 51.1 62h5.1c-.2 1-.4 2-.7 2h-8c-6.7 0-12.6-3.2-15.9-9-1.9-3.3-2.7-6.9-2.4-10.5zm34.5-11.9c-2.1-.7-4.4-1-6.7-1-8.1 0-15.4 4.2-19.4 11.2l-3 5.2c-.4-.8-.7-1.6-1-2.4l3.9-6.8c3.3-5.8 9.3-9.2 15.9-9.2 3.9-.1 7.4 1 10.3 3zm-38 18.2C26.2 53 27 55 28.2 57c4.1 7 11.3 11 19.4 11h6c-.5 1-1 2-1.6 3h-7.9c-6.7 0-12.6-3.7-15.9-9.5-1.9-3.2-2.8-7.1-2.5-10.7zm32 18.6c4.1-7 4.1-15.4 0-22.4l-2.5-4.4c.7-.2 1.5-.4 2.2-.5l4 6.9c3.3 5.8 3.3 12.6 0 18.4-1.9 3.4-4.8 5.9-8.1 7.5 1.6-1.6 3.2-3.4 4.4-5.5zm-7.7-46c3.8 0 7.3 1.1 10.3 3.1-2.2-.7-4.4-1-6.8-1-8.1 0-15.4 4.2-19.4 11.2L32.7 39c.1-2.5.7-5 1.9-7.4 3.5-5.1 9.1-8.2 15.4-8.2zm-25.4 44c-1.9-3.2-2.7-6.9-2.5-10.4.5 2.2 1.3 4.6 2.5 6.6C28.7 70.6 36 75 44.1 75h2.7c-2.2 1-4.7 1.6-7.4 1.8-6.2-.4-11.6-4-14.8-9.4zm50.8 0c-1.9 3.3-4.6 5.8-7.8 7.3 1.6-1.5 3.1-3.3 4.3-5.3 4.1-7 4.1-15.4 0-22.4l-1.3-2.3c2.1 1.4 4 3.2 5.4 5.4 2.7 5.4 2.5 11.8-.6 17.3z"></path></g><!----></svg>