<svg data-v-d3f97b9e="" xmlns="http://www.w3.org/2000/svg" viewBox="0 0 62.195114507907775 60"><!----><!----><!----><!----><g data-v-d3f97b9e="" id="45e178d2-f2a7-42cb-a008-958560cb9874" transform="matrix(0.975609756097561,0,0,0.975609756097561,-17.682927015351083,-19.024390243902438)" stroke="none" fill="white"><path d="M78.8 47l-9.4-16.3c-4.1-7-11.3-11.2-19.4-11.2-8.1 0-15.4 4.2-19.4 11.2L21.2 47c-4.1 7-4.1 15.6 0 22.6 4.1 7 11.3 11.4 19.4 11.4h18.8c8.1 0 15.4-4.4 19.4-11.4 4.1-7 4.1-15.6 0-22.6zm-10.4 2c3.3 5.8 3.3 12.6 0 18.4-1.9 3.3-4.6 5.8-7.8 7.3 1.7-1.5 3.1-3.3 4.3-5.3 4.1-7 4.1-15.4 0-22.4l-3-5.2c.9.1 1.7.2 2.6.4l3.9 6.8zm-7.8-11.3c-8.1 0-15.4 4.2-19.4 11.2l-2.5 4.4c-.6-.5-1.1-1.1-1.6-1.7l4-6.9c3.3-5.8 9.3-9.2 15.9-9.2 3.9 0 7.5 1.2 10.6 3.3-2.3-.7-4.6-1.1-7-1.1zm-6.4 11.1c1.7 2.9 2.5 6.2 2.5 9.2h-5.6c-3.4 0-6.5-.8-9.3-2.4l2.8-4.7c1.7-2.9 4-5.3 6.8-6.8l2.8 4.7zm-25-4.3c.5 2.3 1.3 4.4 2.5 6.4C35.8 57.9 43 62 51.1 62h5.1c-.2 1-.4 2-.7 2h-8c-6.7 0-12.6-3.2-15.9-9-1.9-3.3-2.7-6.9-2.4-10.5zm34.5-11.9c-2.1-.7-4.4-1-6.7-1-8.1 0-15.4 4.2-19.4 11.2l-3 5.2c-.4-.8-.7-1.6-1-2.4l3.9-6.8c3.3-5.8 9.3-9.2 15.9-9.2 3.9-.1 7.4 1 10.3 3zm-38 18.2C26.2 53 27 55 28.2 57c4.1 7 11.3 11 19.4 11h6c-.5 1-1 2-1.6 3h-7.9c-6.7 0-12.6-3.7-15.9-9.5-1.9-3.2-2.8-7.1-2.5-10.7zm32 18.6c4.1-7 4.1-15.4 0-22.4l-2.5-4.4c.7-.2 1.5-.4 2.2-.5l4 6.9c3.3 5.8 3.3 12.6 0 18.4-1.9 3.4-4.8 5.9-8.1 7.5 1.6-1.6 3.2-3.4 4.4-5.5zm-7.7-46c3.8 0 7.3 1.1 10.3 3.1-2.2-.7-4.4-1-6.8-1-8.1 0-15.4 4.2-19.4 11.2L32.7 39c.1-2.5.7-5 1.9-7.4 3.5-5.1 9.1-8.2 15.4-8.2zm-25.4 44c-1.9-3.2-2.7-6.9-2.5-10.4.5 2.2 1.3 4.6 2.5 6.6C28.7 70.6 36 75 44.1 75h2.7c-2.2 1-4.7 1.6-7.4 1.8-6.2-.4-11.6-4-14.8-9.4zm50.8 0c-1.9 3.3-4.6 5.8-7.8 7.3 1.6-1.5 3.1-3.3 4.3-5.3 4.1-7 4.1-15.4 0-22.4l-1.3-2.3c2.1 1.4 4 3.2 5.4 5.4 2.7 5.4 2.5 11.8-.6 17.3z"></path></g><!----></svg>