<svg data-v-d3f97b9e="" xmlns="http://www.w3.org/2000/svg" viewBox="0 0 298 90"><!----><!----><!----><g data-v-d3f97b9e="" id="37f69ad7-0099-4405-9e85-337f2b3bf9e3" fill="black" transform="matrix(4.2105263157894735,0,0,4.2105263157894735,104.03022480638404,9.105261708560747)"><path d="M5.25 1.40L5.25 1.40Q6.02 1.40 6.68 1.74L6.68 1.74L6.68 1.74Q7.34 2.09 7.72 2.69L7.72 2.69L7.72 2.69Q8.11 3.29 8.11 4.05L8.11 4.05L8.11 4.05Q8.11 4.83 7.69 5.45L7.69 5.45L7.69 5.45Q7.27 6.08 6.57 6.38L6.57 6.38L6.57 6.38Q7.55 6.65 8.11 7.37L8.11 7.37L8.11 7.37Q8.68 8.09 8.68 9.16L8.68 9.16L8.68 9.16Q8.68 10.08 8.27 10.80L8.27 10.80L8.27 10.80Q7.85 11.52 7.12 11.93L7.12 11.93L7.12 11.93Q6.38 12.33 5.46 12.33L5.46 12.33L1.95 12.33L1.95 12.33Q1.69 12.33 1.55 12.23L1.55 12.23L1.55 12.23Q1.40 12.12 1.40 11.91L1.40 11.91L1.40 1.82L1.40 1.82Q1.40 1.62 1.52 1.51L1.52 1.51L1.52 1.51Q1.64 1.40 1.82 1.40L1.82 1.40L5.25 1.40ZM5.25 6.02L5.25 6.02Q6.15 6.02 6.71 5.47L6.71 5.47L6.71 5.47Q7.27 4.93 7.27 4.05L7.27 4.05L7.27 4.05Q7.27 3.19 6.71 2.72L6.71 2.72L6.71 2.72Q6.16 2.24 5.25 2.24L5.25 2.24L2.24 2.24L2.24 6.02L5.25 6.02ZM5.46 11.49L5.46 11.49Q6.15 11.49 6.69 11.19L6.69 11.19L6.69 11.19Q7.22 10.89 7.53 10.36L7.53 10.36L7.53 10.36Q7.84 9.83 7.84 9.16L7.84 9.16L7.84 9.16Q7.84 8.50 7.53 7.97L7.53 7.97L7.53 7.97Q7.22 7.45 6.69 7.15L6.69 7.15L6.69 7.15Q6.15 6.86 5.46 6.86L5.46 6.86L2.24 6.86L2.24 11.49L5.46 11.49ZM17.19 4.68L17.19 4.68Q17.39 4.68 17.50 4.79L17.50 4.79L17.50 4.79Q17.61 4.90 17.61 5.10L17.61 5.10L17.61 11.91L17.61 11.91Q17.61 12.10 17.50 12.21L17.50 12.21L17.50 12.21Q17.39 12.33 17.19 12.33L17.19 12.33L17.19 12.33Q17.01 12.33 16.89 12.21L16.89 12.21L16.89 12.21Q16.77 12.10 16.77 11.91L16.77 11.91L16.77 11.19L16.77 11.19Q16.30 11.77 15.61 12.10L15.61 12.10L15.61 12.10Q14.92 12.43 14.11 12.43L14.11 12.43L14.11 12.43Q13.09 12.43 12.29 12.01L12.29 12.01L12.29 12.01Q11.48 11.59 11.03 10.79L11.03 10.79L11.03 10.79Q10.57 9.98 10.57 8.86L10.57 8.86L10.57 5.10L10.57 5.10Q10.57 4.91 10.69 4.79L10.69 4.79L10.69 4.79Q10.81 4.68 10.99 4.68L10.99 4.68L10.99 4.68Q11.17 4.68 11.29 4.79L11.29 4.79L11.29 4.79Q11.41 4.91 11.41 5.10L11.41 5.10L11.41 8.86L11.41 8.86Q11.41 10.19 12.16 10.89L12.16 10.89L12.16 10.89Q12.91 11.59 14.11 11.59L14.11 11.59L14.11 11.59Q14.85 11.59 15.46 11.30L15.46 11.30L15.46 11.30Q16.07 11.02 16.42 10.51L16.42 10.51L16.42 10.51Q16.77 10.00 16.77 9.38L16.77 9.38L16.77 5.10L16.77 5.10Q16.77 4.90 16.89 4.79L16.89 4.79L16.89 4.79Q17.01 4.68 17.19 4.68L17.19 4.68ZM27.12 1.40L27.12 1.40Q27.31 1.40 27.43 1.51L27.43 1.51L27.43 1.51Q27.54 1.62 27.54 1.82L27.54 1.82L27.54 8.55L27.54 8.58L27.54 8.58Q27.52 9.66 27.01 10.54L27.01 10.54L27.01 10.54Q26.49 11.42 25.60 11.92L25.60 11.92L25.60 11.92Q24.71 12.42 23.63 12.42L23.63 12.42L23.63 12.42Q22.53 12.42 21.63 11.91L21.63 11.91L21.63 11.91Q20.73 11.40 20.22 10.50L20.22 10.50L20.22 10.50Q19.71 9.60 19.71 8.50L19.71 8.50L19.71 8.50Q19.71 7.41 20.22 6.51L20.22 6.51L20.22 6.51Q20.73 5.61 21.63 5.10L21.63 5.10L21.63 5.10Q22.53 4.59 23.63 4.59L23.63 4.59L23.63 4.59Q24.63 4.59 25.43 5.02L25.43 5.02L25.43 5.02Q26.24 5.45 26.70 6.19L26.70 6.19L26.70 1.82L26.70 1.82Q26.70 1.62 26.82 1.51L26.82 1.51L26.82 1.51Q26.94 1.40 27.12 1.40L27.12 1.40ZM23.63 11.63L23.63 11.63Q24.50 11.63 25.20 11.22L25.20 11.22L25.20 11.22Q25.90 10.81 26.30 10.09L26.30 10.09L26.30 10.09Q26.70 9.38 26.70 8.50L26.70 8.50L26.70 8.50Q26.70 7.62 26.30 6.90L26.30 6.90L26.30 6.90Q25.90 6.19 25.20 5.78L25.20 5.78L25.20 5.78Q24.50 5.38 23.63 5.38L23.63 5.38L23.63 5.38Q22.76 5.38 22.06 5.78L22.06 5.78L22.06 5.78Q21.36 6.19 20.96 6.90L20.96 6.90L20.96 6.90Q20.55 7.62 20.55 8.50L20.55 8.50L20.55 8.50Q20.55 9.38 20.96 10.09L20.96 10.09L20.96 10.09Q21.36 10.81 22.06 11.22L22.06 11.22L22.06 11.22Q22.76 11.63 23.63 11.63L23.63 11.63ZM33.56 4.59L33.56 4.59Q34.69 4.59 35.58 5.10L35.58 5.10L35.58 5.10Q36.47 5.60 36.97 6.49L36.97 6.49L36.97 6.49Q37.46 7.38 37.46 8.51L37.46 8.51L37.46 11.26L37.46 11.26Q37.46 12.38 36.96 13.29L36.96 13.29L36.96 13.29Q36.46 14.21 35.57 14.73L35.57 14.73L35.57 14.73Q34.69 15.26 33.61 15.26L33.61 15.26L33.61 15.26Q32.51 15.26 31.68 14.85L31.68 14.85L31.68 14.85Q30.84 14.43 30.28 13.72L30.28 13.72L30.28 13.72Q30.17 13.58 30.17 13.44L30.17 13.44L30.17 13.44Q30.17 13.27 30.31 13.17L30.31 13.17L30.31 13.17Q30.42 13.09 30.56 13.09L30.56 13.09L30.56 13.09Q30.79 13.09 30.93 13.27L30.93 13.27L30.93 13.27Q31.39 13.83 32.07 14.15L32.07 14.15L32.07 14.15Q32.75 14.48 33.61 14.48L33.61 14.48L33.61 14.48Q34.47 14.48 35.15 14.06L35.15 14.06L35.15 14.06Q35.84 13.64 36.23 12.90L36.23 12.90L36.23 12.90Q36.62 12.17 36.62 11.26L36.62 11.26L36.62 10.64L36.62 10.64Q36.22 11.47 35.41 11.94L35.41 11.94L35.41 11.94Q34.61 12.42 33.56 12.42L33.56 12.42L33.56 12.42Q32.42 12.42 31.54 11.92L31.54 11.92L31.54 11.92Q30.65 11.42 30.14 10.54L30.14 10.54L30.14 10.54Q29.64 9.65 29.64 8.51L29.64 8.51L29.64 8.51Q29.64 7.39 30.16 6.50L30.16 6.50L30.16 6.50Q30.67 5.60 31.57 5.10L31.57 5.10L31.57 5.10Q32.47 4.59 33.56 4.59L33.56 4.59ZM33.56 11.63L33.56 11.63Q34.44 11.63 35.14 11.23L35.14 11.23L35.14 11.23Q35.84 10.84 36.23 10.13L36.23 10.13L36.23 10.13Q36.62 9.42 36.62 8.51L36.62 8.51L36.62 8.51Q36.62 7.60 36.23 6.89L36.23 6.89L36.23 6.89Q35.84 6.17 35.14 5.77L35.14 5.77L35.14 5.77Q34.44 5.38 33.56 5.38L33.56 5.38L33.56 5.38Q32.66 5.38 31.96 5.77L31.96 5.77L31.96 5.77Q31.26 6.17 30.87 6.89L30.87 6.89L30.87 6.89Q30.48 7.60 30.48 8.51L30.48 8.51L30.48 8.51Q30.48 9.42 30.87 10.13L30.87 10.13L30.87 10.13Q31.26 10.84 31.96 11.23L31.96 11.23L31.96 11.23Q32.66 11.63 33.56 11.63L33.56 11.63ZM45.65 4.69L45.65 4.69Q45.92 4.80 45.92 5.01L45.92 5.01L45.92 5.01Q45.92 5.07 45.86 5.21L45.86 5.21L41.16 15.40L41.16 15.40Q41.03 15.65 40.84 15.65L40.84 15.65L40.84 15.65Q40.75 15.65 40.64 15.61L40.64 15.61L40.64 15.61Q40.38 15.50 40.38 15.29L40.38 15.29L40.38 15.29Q40.38 15.23 40.43 15.09L40.43 15.09L41.83 12.07L41.83 12.07Q41.82 12.05 41.78 11.97L41.78 11.97L38.71 5.25L38.71 5.25Q38.65 5.14 38.65 5.03L38.65 5.03L38.65 5.03Q38.65 4.82 38.89 4.70L38.89 4.70L38.89 4.70Q39.00 4.65 39.12 4.65L39.12 4.65L39.12 4.65Q39.33 4.65 39.44 4.89L39.44 4.89L42.28 11.10L45.14 4.90L45.14 4.90Q45.26 4.65 45.46 4.65L45.46 4.65L45.46 4.65Q45.56 4.65 45.65 4.69L45.65 4.69Z"></path></g><!----><g data-v-d3f97b9e="" id="7fd2a9c8-bd4a-4529-b5a5-bd2dba8c2f2a" transform="matrix(1.4999995231629935,0,0,1.4999995231629935,0.025016592810239047,0)" stroke="none" fill="black"><g fill-rule="evenodd"><path d="M5 6a1 1 0 1 0 0-2 1 1 0 0 0 0 2M8 55a1 1 0 1 0 0 2 1 1 0 0 0 0-2M3 48a1 1 0 1 0 0 2 1 1 0 0 0 0-2M14 3a1 1 0 1 0 0-2 1 1 0 0 0 0 2M54 6a1 1 0 1 0 0-2 1 1 0 0 0 0 2M42.618 30a1 1 0 0 1 1-1h16.357a29.828 29.828 0 0 0-1.695-9H32.263a1 1 0 1 1 0-2h25.224a29.825 29.825 0 0 0-2.129-4H43a1 1 0 0 1 0-2h10.984C48.505 4.718 39.794 0 30 0 17.723 0 7.151 7.416 2.513 18h23.148a1 1 0 0 1 0 2H1.72a29.828 29.828 0 0 0-1.695 9h9.712a1 1 0 1 1 0 2H.025a29.8 29.8 0 0 0 2.073 10h21.845a1 1 0 0 1 0 2H2.966a30.162 30.162 0 0 0 6.666 9h24.174a1 1 0 0 1 0 2H12.021A29.84 29.84 0 0 0 30 60a29.84 29.84 0 0 0 17.979-6h-7.776a1 1 0 0 1 0-2h10.165a30.162 30.162 0 0 0 6.666-9h-26.86a1 1 0 0 1 0-2h27.728a29.8 29.8 0 0 0 2.073-10H43.618a1 1 0 0 1-1-1zM34.567 6H42.9a1 1 0 1 1 0 2h-8.333a1 1 0 0 1 0-2zM16.206 7a1 1 0 0 1 1-1h10.417a1 1 0 0 1 0 2H17.206a1 1 0 0 1-1-1zM24 14a1 1 0 0 1 0-2h10a1 1 0 0 1 0 2H24zm1 9h10a1 1 0 0 1 0 2H25a1 1 0 0 1 0-2zM6 25a1 1 0 0 1 0-2h10a1 1 0 0 1 0 2H6zm9.349 5a1 1 0 0 1 1-1h20.277a1 1 0 0 1 0 2H16.349a1 1 0 0 1-1-1zm21.928 16a1 1 0 0 1 0 2H17a1 1 0 0 1 0-2h20.277zM44 36a1 1 0 0 1-1 1H22.723a1 1 0 0 1 0-2H43a1 1 0 0 1 1 1z"></path></g></g><!----></svg>